<svg width="20" height="21" viewBox="0 0 20 21" fill="none" xmlns="http://www.w3.org/2000/svg">
<path d="M10 7.87938C10.8841 7.87938 11.7319 8.24812 12.3571 8.9045C12.9822 9.56088 13.3334 10.4511 13.3334 11.3794C13.3334 12.3076 12.9822 13.1979 12.3571 13.8542C11.7319 14.5106 10.8841 14.8794 10 14.8794C9.11598 14.8794 8.26813 14.5106 7.64301 13.8542C7.01789 13.1979 6.6667 12.3076 6.6667 11.3794C6.6667 10.4511 7.01789 9.56088 7.64301 8.9045C8.26813 8.24812 9.11598 7.87938 10 7.87938ZM10 9.19187C9.4475 9.19187 8.91759 9.42234 8.52689 9.83258C8.13619 10.2428 7.9167 10.7992 7.9167 11.3794C7.9167 11.9595 8.13619 12.5159 8.52689 12.9262C8.91759 13.3364 9.4475 13.5669 10 13.5669C10.5526 13.5669 11.0825 13.3364 11.4732 12.9262C11.8639 12.5159 12.0834 11.9595 12.0834 11.3794C12.0834 10.7992 11.8639 10.2428 11.4732 9.83258C11.0825 9.42234 10.5526 9.19187 10 9.19187ZM10 4.8125C13.8442 4.8125 17.1634 7.56875 18.0842 11.431C18.1245 11.5998 18.0993 11.7786 18.0142 11.9279C17.929 12.0772 17.7908 12.1849 17.63 12.2272C17.4692 12.2696 17.299 12.2432 17.1568 12.1537C17.0146 12.0643 16.912 11.9192 16.8717 11.7504C16.4859 10.1434 15.6002 8.71768 14.3551 7.69924C13.1099 6.6808 11.5766 6.12796 9.99832 6.12836C8.41999 6.12876 6.88696 6.68239 5.64231 7.70146C4.39766 8.72053 3.51262 10.1467 3.12753 11.7539C3.10767 11.8375 3.07231 11.9163 3.02347 11.9856C2.97463 12.0549 2.91327 12.1134 2.84289 12.1578C2.77252 12.2022 2.6945 12.2316 2.61329 12.2443C2.53209 12.2571 2.44929 12.2529 2.36962 12.2321C2.28995 12.2112 2.21497 12.1741 2.14897 12.1228C2.08297 12.0715 2.02723 12.0071 1.98494 11.9332C1.94265 11.8593 1.91464 11.7774 1.9025 11.6921C1.89036 11.6068 1.89434 11.5199 1.9142 11.4362C2.36573 9.54366 3.40674 7.86381 4.87179 6.66368C6.33684 5.46354 8.14187 4.81197 10 4.8125Z" fill="#8B0000"/>
</svg>
