<svg width="19" height="21" viewBox="0 0 19 21" fill="none" xmlns="http://www.w3.org/2000/svg">
<path d="M3.50195 21H15.498C17.8365 21 19 19.9715 19 17.9342V9.04066C19 7.7769 18.8419 7.2286 17.9382 6.42537L11.7026 0.930687C10.8447 0.166328 10.1439 0 8.86766 0H3.50195C1.17503 0 0 1.03809 0 3.07582V17.9342C0 19.9811 1.17503 21 3.50195 21ZM3.59208 19.4232C2.42862 19.4232 1.81845 18.8841 1.81845 17.905V3.10507C1.81845 2.13552 2.42862 1.57678 3.60365 1.57678H8.61897V7.26788C8.61897 8.50197 9.34192 9.10919 10.7425 9.10919H17.1816V17.905C17.1816 18.8841 16.5825 19.4232 15.4079 19.4232H3.59208ZM10.9459 7.62979C10.5054 7.62979 10.3242 7.47349 10.3242 7.08149V1.8806L16.8307 7.63021L10.9459 7.62979Z" fill="#8B0000"/>
</svg>
