<svg width="35" height="32" viewBox="0 0 35 32" fill="none" xmlns="http://www.w3.org/2000/svg">
<rect width="35" height="32" rx="5" fill="#B04949"/>
<path d="M12.404 21V20H19.658C20.6953 20 21.5787 19.6443 22.308 18.933C23.0387 18.2217 23.404 17.353 23.404 16.327C23.404 15.301 23.039 14.4357 22.309 13.731C21.5783 13.0257 20.6947 12.673 19.658 12.673H11.916L14.881 15.638L14.173 16.346L10 12.173L14.173 8L14.881 8.708L11.916 11.673H19.658C20.9667 11.673 22.085 12.1243 23.013 13.027C23.9397 13.9297 24.403 15.0297 24.403 16.327C24.403 17.6243 23.9397 18.7277 23.013 19.637C22.0863 20.5463 20.9677 21.0007 19.657 21H12.404Z" fill="white"/>
</svg>
