<svg width="12" height="12" viewBox="0 0 12 12" fill="none" xmlns="http://www.w3.org/2000/svg">
<g clip-path="url(#clip0_2_165)">
<path fill-rule="evenodd" clip-rule="evenodd" d="M6.53001 8.03C6.38939 8.17045 6.19876 8.24934 6.00001 8.24934C5.80126 8.24934 5.61064 8.17045 5.47001 8.03L2.64101 5.202C2.50038 5.0613 2.4214 4.8705 2.42145 4.67157C2.42149 4.47264 2.50056 4.28188 2.64126 4.14125C2.78196 4.00062 2.97276 3.92164 3.17169 3.92169C3.37062 3.92173 3.56138 4.0008 3.70201 4.1415L6.00001 6.4395L8.29801 4.1415C8.4394 4.00481 8.62882 3.92913 8.82546 3.93074C9.02211 3.93236 9.21026 4.01115 9.34938 4.15014C9.48851 4.28913 9.56747 4.4772 9.56927 4.67385C9.57107 4.8705 9.49556 5.05998 9.35901 5.2015L6.53051 8.0305L6.53001 8.03Z" fill="white"/>
</g>
<defs>
<clipPath id="clip0_2_165">
<rect width="12" height="12" fill="white"/>
</clipPath>
</defs>
</svg>
