<svg width="35" height="32" viewBox="0 0 35 32" fill="none" xmlns="http://www.w3.org/2000/svg">
<rect width="35" height="32" rx="5" fill="#B04949"/>
<g clip-path="url(#clip0_2_149)">
<path fill-rule="evenodd" clip-rule="evenodd" d="M15.9375 22.5C16.9306 22.5 17.914 22.3044 18.8315 21.9243C19.7491 21.5443 20.5828 20.9872 21.285 20.285C21.9872 19.5828 22.5443 18.7491 22.9243 17.8315C23.3044 16.914 23.5 15.9306 23.5 14.9375C23.5 13.9444 23.3044 12.961 22.9243 12.0435C22.5443 11.1259 21.9872 10.2922 21.285 9.59C20.5828 8.88776 19.7491 8.33071 18.8315 7.95066C17.914 7.57061 16.9306 7.375 15.9375 7.375C13.9318 7.375 12.0082 8.17176 10.59 9.59001C9.17176 11.0082 8.375 12.9318 8.375 14.9375C8.375 16.9432 9.17176 18.8668 10.59 20.285C12.0082 21.7032 13.9318 22.5 15.9375 22.5ZM24.875 14.9375C24.875 17.3079 23.9334 19.5812 22.2573 21.2573C20.5812 22.9334 18.3079 23.875 15.9375 23.875C13.5671 23.875 11.2938 22.9334 9.61773 21.2573C7.94163 19.5812 7 17.3079 7 14.9375C7 12.5671 7.94163 10.2938 9.61773 8.61773C11.2938 6.94163 13.5671 6 15.9375 6C18.3079 6 20.5812 6.94163 22.2573 8.61773C23.9334 10.2938 24.875 12.5671 24.875 14.9375Z" fill="white"/>
<path d="M21.223 22.1452C21.2633 22.2002 21.3083 22.253 21.3578 22.3034L26.6515 27.5971C26.9093 27.8551 27.2591 28.0001 27.6238 28.0003C27.9886 28.0004 28.3384 27.8556 28.5964 27.5978C28.8545 27.34 28.9995 26.9902 28.9996 26.6255C28.9997 26.2607 28.855 25.9109 28.5971 25.6529L23.3034 20.3591C23.2542 20.3093 23.2014 20.2634 23.1453 20.2216C22.6065 20.9576 21.9582 21.6068 21.223 22.1466V22.1452Z" fill="white"/>
<path fill-rule="evenodd" clip-rule="evenodd" d="M11.125 14.9375C11.125 14.7552 11.1974 14.5803 11.3264 14.4514C11.4553 14.3224 11.6302 14.25 11.8125 14.25H20.0625C20.2448 14.25 20.4197 14.3224 20.5486 14.4514C20.6776 14.5803 20.75 14.7552 20.75 14.9375C20.75 15.1198 20.6776 15.2947 20.5486 15.4236C20.4197 15.5526 20.2448 15.625 20.0625 15.625H11.8125C11.6302 15.625 11.4553 15.5526 11.3264 15.4236C11.1974 15.2947 11.125 15.1198 11.125 14.9375Z" fill="white"/>
</g>
<defs>
<clipPath id="clip0_2_149">
<rect width="22" height="22" fill="white" transform="translate(7 6)"/>
</clipPath>
</defs>
</svg>
