<svg width="12" height="12" viewBox="0 0 12 12" fill="none" xmlns="http://www.w3.org/2000/svg">
<path d="M9 6.49899H6.5V8.99899C6.5 9.1316 6.44732 9.25878 6.35355 9.35255C6.25979 9.44631 6.13261 9.49899 6 9.49899C5.86739 9.49899 5.74021 9.44631 5.64645 9.35255C5.55268 9.25878 5.5 9.1316 5.5 8.99899V6.49899H3C2.86739 6.49899 2.74021 6.44631 2.64645 6.35255C2.55268 6.25878 2.5 6.1316 2.5 5.99899C2.5 5.86638 2.55268 5.73921 2.64645 5.64544C2.74021 5.55167 2.86739 5.49899 3 5.49899H5.5V2.99899C5.5 2.86638 5.55268 2.73921 5.64645 2.64544C5.74021 2.55167 5.86739 2.49899 6 2.49899C6.13261 2.49899 6.25979 2.55167 6.35355 2.64544C6.44732 2.73921 6.5 2.86638 6.5 2.99899V5.49899H9C9.13261 5.49899 9.25979 5.55167 9.35355 5.64544C9.44732 5.73921 9.5 5.86638 9.5 5.99899C9.5 6.1316 9.44732 6.25878 9.35355 6.35255C9.25979 6.44631 9.13261 6.49899 9 6.49899Z" fill="white"/>
</svg>
