<svg width="1065" height="41" viewBox="0 0 1065 41" fill="none" xmlns="http://www.w3.org/2000/svg">
<rect width="1065" height="41" fill="#423D3D"/>
<path d="M36.084 13.914C34.906 12.735 32.85 12.735 31.672 13.914L23.293 22.293C23.1055 22.4805 23.0002 22.7348 23.0002 23C23.0002 23.2652 23.1055 23.5195 23.293 23.707L26.293 26.707C26.3857 26.8002 26.4958 26.8741 26.6171 26.9246C26.7385 26.9751 26.8686 27.001 27 27.001C27.1314 27.001 27.2615 26.9751 27.3829 26.9246C27.5042 26.8741 27.6143 26.8002 27.707 26.707L36.086 18.328C36.6706 17.7422 36.9988 16.9482 36.9984 16.1206C36.998 15.2929 36.6691 14.4993 36.084 13.914ZM34.672 16.914L27 24.586L25.414 23L33.086 15.328C33.2996 15.1238 33.5839 15.0099 33.8794 15.0103C34.1749 15.0107 34.4589 15.1252 34.672 15.33C34.8813 15.5404 34.9988 15.8252 34.9988 16.122C34.9988 16.4188 34.8813 16.7036 34.672 16.914ZM23 26C21.735 25.366 19.5 26 19.5 28C19.5 29.197 20 30 18 31C18 31 21.25 33.25 23.5 31C24.774 29.726 24.994 27 23 26Z" fill="white"/>
<g clip-path="url(#clip0_2_18)">
<path fill-rule="evenodd" clip-rule="evenodd" d="M41.53 26.6917C41.3894 26.8087 41.1988 26.8745 41 26.8745C40.8012 26.8745 40.6106 26.8087 40.47 26.6917L37.641 24.335C37.5004 24.2178 37.4214 24.0588 37.4214 23.893C37.4215 23.7272 37.5006 23.5682 37.6412 23.451C37.7819 23.3339 37.9727 23.268 38.1717 23.2681C38.3706 23.2681 38.5614 23.334 38.702 23.4513L41 25.3663L43.298 23.4513C43.4394 23.3373 43.6288 23.2743 43.8255 23.2756C44.0221 23.277 44.2102 23.3426 44.3494 23.4584C44.4885 23.5743 44.5675 23.731 44.5693 23.8949C44.5711 24.0587 44.4956 24.2167 44.359 24.3346L41.5305 26.6921L41.53 26.6917Z" fill="white"/>
</g>
<g clip-path="url(#clip1_2_18)">
<path fill-rule="evenodd" clip-rule="evenodd" d="M88.53 26.6917C88.3894 26.8087 88.1988 26.8745 88 26.8745C87.8012 26.8745 87.6106 26.8087 87.47 26.6917L84.641 24.335C84.5004 24.2178 84.4214 24.0588 84.4214 23.893C84.4215 23.7272 84.5006 23.5682 84.6412 23.451C84.7819 23.3339 84.9727 23.268 85.1717 23.2681C85.3706 23.2681 85.5614 23.334 85.702 23.4513L88 25.3663L90.298 23.4513C90.4394 23.3373 90.6288 23.2743 90.8255 23.2756C91.0221 23.277 91.2102 23.3426 91.3494 23.4584C91.4885 23.5743 91.5675 23.731 91.5693 23.8949C91.5711 24.0587 91.4956 24.2167 91.359 24.3346L88.5305 26.6921L88.53 26.6917Z" fill="white"/>
</g>
<g clip-path="url(#clip2_2_18)">
<path fill-rule="evenodd" clip-rule="evenodd" d="M136.53 26.6917C136.389 26.8087 136.199 26.8745 136 26.8745C135.801 26.8745 135.611 26.8087 135.47 26.6917L132.641 24.335C132.5 24.2178 132.421 24.0588 132.421 23.893C132.421 23.7272 132.501 23.5682 132.641 23.451C132.782 23.3339 132.973 23.268 133.172 23.2681C133.371 23.2681 133.561 23.334 133.702 23.4513L136 25.3663L138.298 23.4513C138.439 23.3373 138.629 23.2743 138.825 23.2756C139.022 23.277 139.21 23.3426 139.349 23.4584C139.488 23.5743 139.567 23.731 139.569 23.8949C139.571 24.0587 139.496 24.2167 139.359 24.3346L136.53 26.6921L136.53 26.6917Z" fill="white"/>
</g>
<g clip-path="url(#clip3_2_18)">
<path fill-rule="evenodd" clip-rule="evenodd" d="M174.53 26.6917C174.389 26.8087 174.199 26.8745 174 26.8745C173.801 26.8745 173.611 26.8087 173.47 26.6917L170.641 24.335C170.5 24.2178 170.421 24.0588 170.421 23.893C170.421 23.7272 170.501 23.5682 170.641 23.451C170.782 23.3339 170.973 23.268 171.172 23.2681C171.371 23.2681 171.561 23.334 171.702 23.4513L174 25.3663L176.298 23.4513C176.439 23.3373 176.629 23.2743 176.825 23.2756C177.022 23.277 177.21 23.3426 177.349 23.4584C177.488 23.5743 177.567 23.731 177.569 23.8949C177.571 24.0587 177.496 24.2167 177.359 24.3346L174.531 26.6921L174.53 26.6917Z" fill="white"/>
</g>
<g clip-path="url(#clip4_2_18)">
<path fill-rule="evenodd" clip-rule="evenodd" d="M211.53 26.6917C211.389 26.8087 211.199 26.8745 211 26.8745C210.801 26.8745 210.611 26.8087 210.47 26.6917L207.641 24.335C207.5 24.2178 207.421 24.0588 207.421 23.893C207.421 23.7272 207.501 23.5682 207.641 23.451C207.782 23.3339 207.973 23.268 208.172 23.2681C208.371 23.2681 208.561 23.334 208.702 23.4513L211 25.3663L213.298 23.4513C213.439 23.3373 213.629 23.2743 213.825 23.2756C214.022 23.277 214.21 23.3426 214.349 23.4584C214.488 23.5743 214.567 23.731 214.569 23.8949C214.571 24.0587 214.496 24.2167 214.359 24.3346L211.53 26.6921L211.53 26.6917Z" fill="white"/>
</g>
<g clip-path="url(#clip5_2_18)">
<path fill-rule="evenodd" clip-rule="evenodd" d="M250.53 26.6917C250.389 26.8087 250.199 26.8745 250 26.8745C249.801 26.8745 249.611 26.8087 249.47 26.6917L246.641 24.335C246.5 24.2178 246.421 24.0588 246.421 23.893C246.421 23.7272 246.501 23.5682 246.641 23.451C246.782 23.3339 246.973 23.268 247.172 23.2681C247.371 23.2681 247.561 23.334 247.702 23.4513L250 25.3663L252.298 23.4513C252.439 23.3373 252.629 23.2743 252.825 23.2756C253.022 23.277 253.21 23.3426 253.349 23.4584C253.488 23.5743 253.567 23.731 253.569 23.8949C253.571 24.0587 253.496 24.2167 253.359 24.3346L250.53 26.6921L250.53 26.6917Z" fill="white"/>
</g>
<g clip-path="url(#clip6_2_18)">
<path fill-rule="evenodd" clip-rule="evenodd" d="M286.53 26.6917C286.389 26.8087 286.199 26.8745 286 26.8745C285.801 26.8745 285.611 26.8087 285.47 26.6917L282.641 24.335C282.5 24.2178 282.421 24.0588 282.421 23.893C282.421 23.7272 282.501 23.5682 282.641 23.451C282.782 23.3339 282.973 23.268 283.172 23.2681C283.371 23.2681 283.561 23.334 283.702 23.4513L286 25.3663L288.298 23.4513C288.439 23.3373 288.629 23.2743 288.825 23.2756C289.022 23.277 289.21 23.3426 289.349 23.4584C289.488 23.5743 289.567 23.731 289.569 23.8949C289.571 24.0587 289.496 24.2167 289.359 24.3346L286.53 26.6921L286.53 26.6917Z" fill="white"/>
</g>
<g clip-path="url(#clip7_2_18)">
<path fill-rule="evenodd" clip-rule="evenodd" d="M320.53 26.6917C320.389 26.8087 320.199 26.8745 320 26.8745C319.801 26.8745 319.611 26.8087 319.47 26.6917L316.641 24.335C316.5 24.2178 316.421 24.0588 316.421 23.893C316.421 23.7272 316.501 23.5682 316.641 23.451C316.782 23.3339 316.973 23.268 317.172 23.2681C317.371 23.2681 317.561 23.334 317.702 23.4513L320 25.3663L322.298 23.4513C322.439 23.3373 322.629 23.2743 322.825 23.2756C323.022 23.277 323.21 23.3426 323.349 23.4584C323.488 23.5743 323.567 23.731 323.569 23.8949C323.571 24.0587 323.496 24.2167 323.359 24.3346L320.53 26.6921L320.53 26.6917Z" fill="white"/>
</g>
<path d="M65 13L70 18M62 24H77M79 22L71 14L62.4 22.6C62.0335 22.9739 61.8283 23.4765 61.8283 24C61.8283 24.5235 62.0335 25.0261 62.4 25.4L67.6 30.6C68.4 31.4 69.6 31.4 70.4 30.6L79 22ZM82 31C82 31.5304 81.7893 32.0391 81.4142 32.4142C81.0391 32.7893 80.5304 33 80 33C79.4696 33 78.9609 32.7893 78.5858 32.4142C78.2107 32.0391 78 31.5304 78 31C78 29.4 79.7 28.6 80 27C80.3 28.6 82 29.4 82 31Z" stroke="white" stroke-width="2" stroke-linecap="round" stroke-linejoin="round"/>
<path d="M108 13H117V22H108V13ZM123.5 13C126 13 128 15 128 17.5C128 20 126 22 123.5 22C121 22 119 20 119 17.5C119 15 121 13 123.5 13ZM112.5 25L117 33H108L112.5 25ZM125 28H128V30H125V33H123V30H120V28H123V25H125V28Z" fill="white"/>
<path d="M165.922 27.7344H154.641L151.078 24.1719L159.984 15.2656L165.922 21.2031L159.391 27.7344M155.234 20.0156L161.172 25.9531" stroke="white" stroke-width="1.5" stroke-linecap="round" stroke-linejoin="round"/>
<path d="M192 19H194V17H197.252L194.68 29H192V31H200V29H197.748L200.32 17H204V19H206V15H192V19Z" fill="white"/>
<path d="M243 23L239 20V22H235V18H237L234 14L231 18H233V22H229V20L225 23L229 26V24H233V28H231L234 32L237 28H235V24H239V26L243 23Z" fill="white"/>
<path d="M279.936 16.889C279.938 16.3309 279.775 15.7848 279.467 15.3195C279.158 14.8541 278.719 14.4905 278.205 14.2744C277.69 14.0583 277.123 13.9995 276.575 14.1053C276.027 14.2111 275.523 14.4769 275.126 14.869L272.916 17.089L272.166 16.339C272.093 16.2678 272.007 16.2118 271.913 16.174C271.819 16.1362 271.718 16.1175 271.616 16.119C271.411 16.1193 271.214 16.198 271.066 16.339C270.922 16.4858 270.841 16.6833 270.841 16.889C270.841 17.0947 270.922 17.2922 271.066 17.439L271.816 18.189L263.056 26.949C262.49 27.5161 262.16 28.2778 262.136 29.079L262.066 30.599C262.057 30.9477 262.187 31.2858 262.427 31.5389C262.667 31.7921 262.997 31.9396 263.346 31.949H263.406L264.926 31.879C265.727 31.8469 266.488 31.515 267.056 30.949L275.816 22.189L276.566 22.939C276.715 23.0797 276.911 23.1581 277.116 23.1581C277.321 23.1581 277.517 23.0797 277.666 22.939C277.81 22.7922 277.891 22.5947 277.891 22.389C277.891 22.1833 277.81 21.9858 277.666 21.839L276.916 21.089L279.096 18.909C279.362 18.6442 279.573 18.3295 279.718 17.9828C279.862 17.6362 279.936 17.2644 279.936 16.889ZM271.376 25.219H266.2L272.53 18.899L275.12 21.489L271.376 25.219ZM278.4 18.2L276.22 20.39L273.626 17.8L275.836 15.58C276.177 15.2436 276.637 15.055 277.116 15.055C277.595 15.055 278.055 15.2436 278.396 15.58C278.742 15.9284 278.936 16.3992 278.936 16.89C278.936 17.3807 278.742 17.8516 278.396 18.2H278.4Z" fill="white"/>
<g clip-path="url(#clip8_2_18)">
<path d="M1044.47 15.5556H1041.44C1041.25 15.5556 1041.08 15.6287 1040.95 15.759C1040.82 15.8892 1040.74 16.0658 1040.74 16.25C1040.74 16.4342 1040.82 16.6108 1040.95 16.741C1041.08 16.8713 1041.25 16.9444 1041.44 16.9444H1044.53V30.8333H1026.47V16.9444H1029.51C1029.7 16.9444 1029.87 16.8713 1030 16.741C1030.14 16.6108 1030.21 16.4342 1030.21 16.25C1030.21 16.0658 1030.14 15.8892 1030 15.759C1029.87 15.6287 1029.7 15.5556 1029.51 15.5556H1026.53C1026.34 15.5481 1026.15 15.5785 1025.98 15.6449C1025.8 15.7113 1025.64 15.8125 1025.51 15.9422C1025.37 16.0719 1025.27 16.2276 1025.19 16.3998C1025.12 16.572 1025.08 16.7573 1025.08 16.9444V30.8333C1025.08 31.0205 1025.12 31.2058 1025.19 31.378C1025.27 31.5502 1025.37 31.7059 1025.51 31.8356C1025.64 31.9653 1025.8 32.0664 1025.98 32.1329C1026.15 32.1993 1026.34 32.2297 1026.53 32.2222H1044.47C1044.66 32.2297 1044.85 32.1993 1045.02 32.1329C1045.2 32.0664 1045.36 31.9653 1045.49 31.8356C1045.63 31.7059 1045.73 31.5502 1045.81 31.378C1045.88 31.2058 1045.92 31.0205 1045.92 30.8333V16.9444C1045.92 16.7573 1045.88 16.572 1045.81 16.3998C1045.73 16.2276 1045.63 16.0719 1045.49 15.9422C1045.36 15.8125 1045.2 15.7113 1045.02 15.6449C1044.85 15.5785 1044.66 15.5481 1044.47 15.5556Z" fill="white"/>
<path d="M1030.15 23.1042L1035.01 27.8889C1035.14 28.0161 1035.32 28.0874 1035.5 28.0874C1035.68 28.0874 1035.86 28.0161 1035.99 27.8889L1040.85 23.1042C1040.98 22.9752 1041.05 22.7993 1041.06 22.615C1041.06 22.4307 1040.99 22.2532 1040.86 22.1215C1040.73 21.9898 1040.55 21.9148 1040.37 21.9128C1040.18 21.9109 1040.01 21.9822 1039.88 22.1111L1036.19 25.7292V12.7778C1036.19 12.5936 1036.12 12.417 1035.99 12.2867C1035.86 12.1565 1035.68 12.0833 1035.5 12.0833C1035.32 12.0833 1035.14 12.1565 1035.01 12.2867C1034.88 12.417 1034.81 12.5936 1034.81 12.7778V25.7292L1031.13 22.1111C1030.99 21.9822 1030.82 21.9109 1030.63 21.9128C1030.45 21.9148 1030.27 21.9898 1030.14 22.1215C1030.01 22.2532 1029.94 22.4307 1029.94 22.615C1029.95 22.7993 1030.02 22.9752 1030.15 23.1042Z" fill="white"/>
</g>
<defs>
<clipPath id="clip0_2_18">
<rect width="12" height="10" fill="white" transform="translate(35 20)"/>
</clipPath>
<clipPath id="clip1_2_18">
<rect width="12" height="10" fill="white" transform="translate(82 20)"/>
</clipPath>
<clipPath id="clip2_2_18">
<rect width="12" height="10" fill="white" transform="translate(130 20)"/>
</clipPath>
<clipPath id="clip3_2_18">
<rect width="12" height="10" fill="white" transform="translate(168 20)"/>
</clipPath>
<clipPath id="clip4_2_18">
<rect width="12" height="10" fill="white" transform="translate(205 20)"/>
</clipPath>
<clipPath id="clip5_2_18">
<rect width="12" height="10" fill="white" transform="translate(244 20)"/>
</clipPath>
<clipPath id="clip6_2_18">
<rect width="12" height="10" fill="white" transform="translate(280 20)"/>
</clipPath>
<clipPath id="clip7_2_18">
<rect width="12" height="10" fill="white" transform="translate(314 20)"/>
</clipPath>
<clipPath id="clip8_2_18">
<rect width="25" height="25" fill="white" transform="translate(1023 10)"/>
</clipPath>
</defs>
</svg>
