<svg width="181" height="89" viewBox="0 0 181 89" fill="none" xmlns="http://www.w3.org/2000/svg">
<g filter="url(#filter0_d_2_406)">
<path d="M14.7641 20.6852C14.7641 11.4702 22.9288 4 33.0004 4H154.142C164.213 4 172.378 11.4702 172.378 20.6852V60.0145C172.378 69.2294 164.213 76.6996 154.142 76.6996H33.0004C22.9288 76.6996 14.7641 69.2294 14.7641 60.0145V20.6852Z" fill="white"/>
<path d="M18.0014 49.4329C19.5274 48.0366 22.0017 48.0366 23.5278 49.4329L31.8174 57.0174C33.3435 58.4137 33.3435 60.6775 31.8174 62.0738L23.5278 69.6584C22.0017 71.0546 19.5274 71.0546 18.0014 69.6584L9.7117 62.0738C8.18562 60.6775 8.18562 58.4137 9.7117 57.0174L18.0014 49.4329Z" fill="white"/>
</g>
<defs>
<filter id="filter0_d_2_406" x="0.567139" y="0" width="179.811" height="88.6996" filterUnits="userSpaceOnUse" color-interpolation-filters="sRGB">
<feFlood flood-opacity="0" result="BackgroundImageFix"/>
<feColorMatrix in="SourceAlpha" type="matrix" values="0 0 0 0 0 0 0 0 0 0 0 0 0 0 0 0 0 0 127 0" result="hardAlpha"/>
<feOffset dy="4"/>
<feGaussianBlur stdDeviation="4"/>
<feColorMatrix type="matrix" values="0 0 0 0 0 0 0 0 0 0 0 0 0 0 0 0 0 0 0.12 0"/>
<feBlend mode="normal" in2="BackgroundImageFix" result="effect1_dropShadow_2_406"/>
<feBlend mode="normal" in="SourceGraphic" in2="effect1_dropShadow_2_406" result="shape"/>
</filter>
</defs>
</svg>
