<svg width="35" height="35" viewBox="0 0 35 35" fill="none" xmlns="http://www.w3.org/2000/svg">
<path d="M26.9791 29.5313H21.1458C20.5478 29.5313 20.052 29.0354 20.052 28.4375C20.052 27.8396 20.5478 27.3438 21.1458 27.3438H26.9791C27.577 27.3438 28.0728 27.8396 28.0728 28.4375C28.0728 29.0354 27.577 29.5313 26.9791 29.5313Z" fill="white"/>
<path d="M24.0625 32.4479C23.4646 32.4479 22.9688 31.9521 22.9688 31.3542V25.5208C22.9688 24.9229 23.4646 24.4271 24.0625 24.4271C24.6604 24.4271 25.1563 24.9229 25.1563 25.5208V31.3542C25.1563 31.9521 24.6604 32.4479 24.0625 32.4479Z" fill="white"/>
<path d="M17.7344 16.9458C17.6907 16.9458 17.6615 16.9458 17.6178 16.9458C17.5449 16.9312 17.4428 16.9312 17.3553 16.9458C13.1261 16.8146 9.93233 13.4896 9.93233 9.39166C9.91774 7.37916 10.7052 5.48333 12.1344 4.05416C13.5636 2.625 15.4594 1.82291 17.4865 1.82291C21.6574 1.82291 25.0553 5.22083 25.0553 9.39166C25.0553 13.4896 21.8615 16.8 17.7782 16.9458C17.7636 16.9458 17.749 16.9458 17.7344 16.9458ZM17.4865 4.01041C16.0428 4.01041 14.7011 4.57916 13.6802 5.58541C12.674 6.60625 12.1198 7.94791 12.1198 9.37708C12.1198 12.2937 14.3948 14.6562 17.2969 14.7437C17.3844 14.7292 17.574 14.7292 17.7636 14.7437C20.6365 14.6125 22.8678 12.2646 22.8678 9.37708C22.8678 6.43125 20.4469 4.01041 17.4865 4.01041Z" fill="white"/>
<path d="M17.4856 32.8999C14.5106 32.8999 11.696 32.1269 9.56681 30.6978C7.53973 29.3415 6.4314 27.4894 6.4314 25.4915C6.4314 23.4936 7.55431 21.6561 9.56681 20.3144C13.9272 17.3978 21.0148 17.3978 25.3752 20.3144C25.871 20.6499 26.0169 21.3353 25.6815 21.8311C25.346 22.3415 24.6606 22.4728 24.1648 22.1374C20.5335 19.7165 14.4085 19.7165 10.7772 22.1374C9.37723 23.0707 8.6189 24.2519 8.6189 25.4915C8.6189 26.7311 9.37723 27.9415 10.7772 28.8749C12.5418 30.0561 14.919 30.6978 17.471 30.6978C18.069 30.6978 18.5648 31.1936 18.5648 31.7915C18.5648 32.3894 18.0835 32.8999 17.4856 32.8999Z" fill="white"/>
</svg>
