<svg width="35" height="35" viewBox="0 0 35 35" fill="none" xmlns="http://www.w3.org/2000/svg">
<path d="M17.7335 15.8521C17.5877 15.8375 17.4127 15.8375 17.2523 15.8521C13.7814 15.7354 11.0251 12.8917 11.0251 9.39166C11.0251 5.81875 13.9126 2.91666 17.5002 2.91666C21.0731 2.91666 23.9752 5.81875 23.9752 9.39166C23.9606 12.8917 21.2044 15.7354 17.7335 15.8521Z" stroke="white" stroke-width="1.5" stroke-linecap="round" stroke-linejoin="round"/>
<path d="M10.4416 21.2333C6.91239 23.5958 6.91239 27.4458 10.4416 29.7938C14.452 32.4771 21.0291 32.4771 25.0395 29.7938C28.5687 27.4313 28.5687 23.5813 25.0395 21.2333C21.0437 18.5646 14.4666 18.5646 10.4416 21.2333Z" stroke="white" stroke-width="1.5" stroke-linecap="round" stroke-linejoin="round"/>
</svg>
