<svg width="247" height="40" viewBox="0 0 247 40" fill="none" xmlns="http://www.w3.org/2000/svg">
<g clip-path="url(#clip0_6_744)">
<rect width="247" height="40" rx="20" fill="#8B0000"/>
<path d="M210.5 22H209.71L209.43 21.73C210.444 20.5541 211.001 19.0527 211 17.5C211 16.2144 210.619 14.9577 209.905 13.8888C209.19 12.8199 208.175 11.9868 206.987 11.4948C205.8 11.0028 204.493 10.8741 203.232 11.1249C201.971 11.3757 200.813 11.9948 199.904 12.9038C198.995 13.8129 198.376 14.971 198.125 16.2319C197.874 17.4928 198.003 18.7997 198.495 19.9874C198.987 21.1752 199.82 22.1903 200.889 22.9046C201.958 23.6188 203.214 24 204.5 24C206.11 24 207.59 23.41 208.73 22.43L209 22.71V23.5L214 28.49L215.49 27L210.5 22ZM204.5 22C202.01 22 200 19.99 200 17.5C200 15.01 202.01 13 204.5 13C206.99 13 209 15.01 209 17.5C209 19.99 206.99 22 204.5 22Z" fill="white"/>
</g>
<defs>
<clipPath id="clip0_6_744">
<rect width="247" height="40" rx="20" fill="white"/>
</clipPath>
</defs>
</svg>
