<svg width="15" height="20" viewBox="0 0 15 20" fill="none" xmlns="http://www.w3.org/2000/svg">
<path d="M11.5 17.395L11.657 16.8023L11.439 16.7125L11.242 16.861L11.5 17.395ZM13.5 14.8996L13.079 14.5628L12.95 14.8148L13.026 15.0968L13.5 14.8996ZM14.5 18.6302L14.343 19.224C14.4312 19.2604 14.5257 19.2655 14.6161 19.2386C14.7064 19.2117 14.7889 19.154 14.8544 19.0719C14.92 18.9897 14.9658 18.8865 14.987 18.7736C15.0081 18.6608 15.0036 18.5429 14.974 18.433L14.5 18.6302ZM11.242 16.861C10.286 17.5784 8.757 18.0076 7.5 18.0076V19.2552C8.885 19.2552 10.606 18.7936 11.758 17.929L11.242 16.861ZM7.5 18.0063C3.91 18.0063 1 14.3781 1 9.9015H0C0.0010605 12.3824 0.791705 14.7612 2.19811 16.515C3.60452 18.2688 5.51157 19.254 7.5 19.254V18.0063ZM1 9.9015C1.00133 7.75173 1.68673 5.69182 2.90557 4.17228C4.12442 2.65274 5.77696 1.79918 7.5 1.79918V0.551514C5.51174 0.551513 3.60485 1.53653 2.19847 3.29005C0.792087 5.04357 0.00132551 7.42083 0 9.9015H1ZM7.5 1.79918C11.09 1.79918 14 5.42738 14 9.90275H15C14.9987 7.42208 14.2079 5.04357 12.8015 3.29005C11.3952 1.53653 9.48826 0.551513 7.5 0.551514V1.79918ZM14 9.90275C14 11.5634 13.704 13.3438 13.079 14.5628L13.921 15.2365C14.686 13.7456 15 11.7019 15 9.90275H14ZM11.343 17.9876L14.343 19.224L14.657 18.0388L11.657 16.8036L11.343 17.9876ZM14.974 18.433L13.974 14.7025L13.026 15.0968L14.026 18.8285L14.974 18.433Z" fill="black" fill-opacity="0.5"/>
</svg>
