<svg width="19" height="12" viewBox="0 0 19 12" fill="none" xmlns="http://www.w3.org/2000/svg">
<path d="M9.59614 3.505C10.6153 3.505 11.5927 3.92643 12.3134 4.67657C13.034 5.42672 13.4389 6.44413 13.4389 7.505C13.4389 8.56587 13.034 9.58328 12.3134 10.3334C11.5927 11.0836 10.6153 11.505 9.59614 11.505C8.57698 11.505 7.59956 11.0836 6.8789 10.3334C6.15825 9.58328 5.75339 8.56587 5.75339 7.505C5.75339 6.44413 6.15825 5.42672 6.8789 4.67657C7.59956 3.92643 8.57698 3.505 9.59614 3.505ZM9.59614 5.005C8.95916 5.005 8.34827 5.26839 7.89787 5.73723C7.44746 6.20607 7.19442 6.84196 7.19442 7.505C7.19442 8.16804 7.44746 8.80393 7.89787 9.27277C8.34827 9.74161 8.95916 10.005 9.59614 10.005C10.2331 10.005 10.844 9.74161 11.2944 9.27277C11.7448 8.80393 11.9979 8.16804 11.9979 7.505C11.9979 6.84196 11.7448 6.20607 11.2944 5.73723C10.844 5.26839 10.2331 5.005 9.59614 5.005ZM9.59614 3.74842e-07C14.0278 3.74842e-07 17.8542 3.15 18.9158 7.564C18.9623 7.75695 18.9332 7.96122 18.835 8.13187C18.7369 8.30253 18.5776 8.4256 18.3922 8.474C18.2068 8.5224 18.0106 8.49217 17.8466 8.38997C17.6827 8.28776 17.5645 8.12195 17.518 7.929C17.0732 6.09247 16.0521 4.46306 14.6167 3.29913C13.1813 2.1352 11.4137 1.50338 9.59416 1.50384C7.77462 1.5043 6.00731 2.13702 4.57244 3.30167C3.13757 4.46632 2.11728 6.09625 1.67334 7.933C1.65045 8.0286 1.60968 8.11857 1.55338 8.19778C1.49708 8.27698 1.42634 8.34387 1.34521 8.39461C1.26407 8.44536 1.17413 8.47898 1.08051 8.49354C0.986897 8.50811 0.891442 8.50333 0.799598 8.4795C0.707754 8.45566 0.621319 8.41323 0.545229 8.35463C0.469139 8.29602 0.404884 8.22239 0.356131 8.13793C0.307379 8.05348 0.275085 7.95986 0.261093 7.86241C0.2471 7.76496 0.251684 7.6656 0.274582 7.57C0.795122 5.40704 1.99522 3.48722 3.68417 2.11563C5.37311 0.744046 7.454 -0.000609927 9.59614 3.74842e-07Z" fill="black" fill-opacity="0.5"/>
</svg>
