<svg width="20" height="12" viewBox="0 0 20 12" fill="none" xmlns="http://www.w3.org/2000/svg">
<path d="M10.0901 3.505C11.1275 3.505 12.1224 3.92643 12.8559 4.67657C13.5895 5.42672 14.0016 6.44413 14.0016 7.505C14.0016 8.56587 13.5895 9.58328 12.8559 10.3334C12.1224 11.0836 11.1275 11.505 10.0901 11.505C9.05266 11.505 8.05774 11.0836 7.32418 10.3334C6.59062 9.58328 6.17851 8.56587 6.17851 7.505C6.17851 6.44413 6.59062 5.42672 7.32418 4.67657C8.05774 3.92643 9.05266 3.505 10.0901 3.505ZM10.0901 5.005C9.44168 5.005 8.81986 5.26839 8.36139 5.73723C7.90291 6.20607 7.64535 6.84196 7.64535 7.505C7.64535 8.16804 7.90291 8.80393 8.36139 9.27277C8.81986 9.74161 9.44168 10.005 10.0901 10.005C10.7384 10.005 11.3603 9.74161 11.8187 9.27277C12.2772 8.80393 12.5348 8.16804 12.5348 7.505C12.5348 6.84196 12.2772 6.20607 11.8187 5.73723C11.3603 5.26839 10.7384 5.005 10.0901 5.005ZM10.0901 3.74842e-07C14.6011 3.74842e-07 18.496 3.15 19.5765 7.564C19.6239 7.75695 19.5943 7.96122 19.4944 8.13187C19.3944 8.30253 19.2323 8.4256 19.0436 8.474C18.8549 8.5224 18.6552 8.49217 18.4883 8.38997C18.3214 8.28776 18.2011 8.12195 18.1537 7.929C17.701 6.09247 16.6616 4.46306 15.2005 3.29913C13.7394 2.1352 11.9402 1.50338 10.088 1.50384C8.23594 1.5043 6.43698 2.13702 4.97643 3.30167C3.51587 4.46632 2.47731 6.09625 2.02543 7.933C2.00212 8.0286 1.96063 8.11857 1.90332 8.19778C1.84601 8.27698 1.774 8.34387 1.69142 8.39461C1.60883 8.44536 1.51728 8.47898 1.42198 8.49354C1.32669 8.50811 1.22953 8.50333 1.13604 8.4795C1.04255 8.45566 0.95457 8.41323 0.877118 8.35463C0.799665 8.29602 0.73426 8.22239 0.684635 8.13793C0.63501 8.05348 0.602137 7.95986 0.587895 7.86241C0.573652 7.76496 0.578317 7.6656 0.601625 7.57C1.13148 5.40704 2.35307 3.48722 4.07225 2.11563C5.79143 0.744046 7.90957 -0.000609927 10.0901 3.74842e-07Z" fill="black" fill-opacity="0.5"/>
</svg>
