<svg width="16" height="15" viewBox="0 0 16 15" fill="none" xmlns="http://www.w3.org/2000/svg">
<path d="M11.8268 13.5L11.9769 13.025L11.7685 12.953L11.5803 13.072L11.8268 13.5ZM13.7384 11.5L13.336 11.23L13.2127 11.432L13.2854 11.658L13.7384 11.5ZM14.6942 14.49L14.5441 14.966C14.6284 14.9952 14.7188 14.9992 14.8051 14.9777C14.8914 14.9561 14.9703 14.9098 15.0329 14.844C15.0956 14.7782 15.1394 14.6954 15.1596 14.605C15.1798 14.5146 15.1755 14.42 15.1472 14.332L14.6942 14.49ZM11.5803 13.072C10.6665 13.647 9.20516 13.991 8.00375 13.991V14.991C9.3275 14.991 10.9724 14.621 12.0734 13.928L11.5803 13.072ZM8.00375 13.99C4.57253 13.99 1.79122 11.082 1.79122 7.494H0.835449C0.836463 9.48243 1.59214 11.3891 2.93635 12.7947C4.28056 14.2004 6.10326 14.99 8.00375 14.99V13.99ZM1.79122 7.494C1.79249 5.77096 2.44758 4.11994 3.61252 2.90204C4.77746 1.68413 6.35692 0.999999 8.00375 1V0C6.10343 -4.41835e-07 4.28087 0.789489 2.93669 2.19493C1.59251 3.60037 0.836716 5.50574 0.835449 7.494H1.79122ZM8.00375 1C11.435 1 14.2163 3.908 14.2163 7.495H15.1721C15.1708 5.50674 14.415 3.60037 13.0708 2.19493C11.7266 0.789489 9.90408 -4.41835e-07 8.00375 0V1ZM14.2163 7.495C14.2163 8.826 13.9334 10.253 13.336 11.23L14.1408 11.77C14.8719 10.575 15.1721 8.937 15.1721 7.495H14.2163ZM11.6768 13.975L14.5441 14.966L14.8442 14.016L11.9769 13.026L11.6768 13.975ZM15.1472 14.332L14.1914 11.342L13.2854 11.658L14.2411 14.649L15.1472 14.332Z" fill="black" fill-opacity="0.5"/>
</svg>
