<svg width="19" height="12" viewBox="0 0 19 12" fill="none" xmlns="http://www.w3.org/2000/svg">
<path d="M9.45484 3.505C10.4688 3.505 11.4412 3.92643 12.1582 4.67657C12.8751 5.42672 13.2779 6.44413 13.2779 7.505C13.2779 8.56587 12.8751 9.58328 12.1582 10.3334C11.4412 11.0836 10.4688 11.505 9.45484 11.505C8.44089 11.505 7.46847 11.0836 6.7515 10.3334C6.03453 9.58328 5.63175 8.56587 5.63175 7.505C5.63175 6.44413 6.03453 5.42672 6.7515 4.67657C7.46847 3.92643 8.44089 3.505 9.45484 3.505ZM9.45484 5.005C8.82112 5.005 8.21336 5.26839 7.76526 5.73723C7.31715 6.20607 7.06541 6.84196 7.06541 7.505C7.06541 8.16804 7.31715 8.80393 7.76526 9.27277C8.21336 9.74161 8.82112 10.005 9.45484 10.005C10.0886 10.005 10.6963 9.74161 11.1444 9.27277C11.5925 8.80393 11.8443 8.16804 11.8443 7.505C11.8443 6.84196 11.5925 6.20607 11.1444 5.73723C10.6963 5.26839 10.0886 5.005 9.45484 5.005ZM9.45484 3.74842e-07C13.8638 3.74842e-07 17.6707 3.15 18.7268 7.564C18.7731 7.75695 18.7442 7.96122 18.6465 8.13187C18.5488 8.30253 18.3903 8.4256 18.2059 8.474C18.0215 8.5224 17.8263 8.49217 17.6631 8.38997C17.5 8.28776 17.3824 8.12195 17.3362 7.929C16.8936 6.09247 15.8778 4.46306 14.4497 3.29913C13.0217 2.1352 11.2631 1.50338 9.45287 1.50384C7.64264 1.5043 5.88437 2.13702 4.45684 3.30167C3.02931 4.46632 2.01424 6.09625 1.57257 7.933C1.54979 8.0286 1.50924 8.11857 1.45322 8.19778C1.39721 8.27698 1.32683 8.34387 1.24611 8.39461C1.16539 8.44536 1.07591 8.47898 0.982774 8.49354C0.889638 8.50811 0.794671 8.50333 0.703297 8.4795C0.611923 8.45566 0.52593 8.41323 0.450229 8.35463C0.374528 8.29602 0.310602 8.22239 0.262099 8.13793C0.213596 8.05348 0.181467 7.95986 0.167546 7.86241C0.153626 7.76496 0.158186 7.6656 0.180966 7.57C0.698844 5.40704 1.89281 3.48722 3.57311 2.11563C5.25341 0.744046 7.32366 -0.000609927 9.45484 3.74842e-07Z" fill="black" fill-opacity="0.5"/>
</svg>
