<svg width="16" height="15" viewBox="0 0 16 15" fill="none" xmlns="http://www.w3.org/2000/svg">
<path d="M11.6793 13.5L11.8301 13.025L11.6207 12.953L11.4314 13.072L11.6793 13.5ZM13.6006 11.5L13.1962 11.23L13.0723 11.432L13.1453 11.658L13.6006 11.5ZM14.5613 14.49L14.4105 14.966C14.4952 14.9952 14.586 14.9992 14.6728 14.9777C14.7596 14.9561 14.8389 14.9098 14.9018 14.844C14.9648 14.7782 15.0089 14.6954 15.0291 14.605C15.0494 14.5146 15.0451 14.42 15.0167 14.332L14.5613 14.49ZM11.4314 13.072C10.513 13.647 9.04409 13.991 7.83651 13.991V14.991C9.16706 14.991 10.8204 14.621 11.9271 13.928L11.4314 13.072ZM7.83651 13.99C4.38764 13.99 1.59204 11.082 1.59204 7.494H0.631348C0.632366 9.48243 1.39193 11.3891 2.74305 12.7947C4.09417 14.2004 5.92625 14.99 7.83651 14.99V13.99ZM1.59204 7.494C1.59331 5.77096 2.25177 4.11994 3.4227 2.90204C4.59362 1.68413 6.1812 0.999999 7.83651 1V0C5.92641 -4.41835e-07 4.09448 0.789489 2.74339 2.19493C1.3923 3.60037 0.632621 5.50574 0.631348 7.494H1.59204ZM7.83651 1C11.2854 1 14.081 3.908 14.081 7.495H15.0417C15.0404 5.50674 14.2807 3.60037 12.9296 2.19493C11.5785 0.789489 9.7466 -4.41835e-07 7.83651 0V1ZM14.081 7.495C14.081 8.826 13.7966 10.253 13.1962 11.23L14.0051 11.77C14.74 10.575 15.0417 8.937 15.0417 7.495H14.081ZM11.5284 13.975L14.4105 14.966L14.7122 14.016L11.8301 13.026L11.5284 13.975ZM15.0167 14.332L14.056 11.342L13.1453 11.658L14.106 14.649L15.0167 14.332Z" fill="black" fill-opacity="0.5"/>
</svg>
