<svg width="16" height="15" viewBox="0 0 16 15" fill="none" xmlns="http://www.w3.org/2000/svg">
<path d="M11.6634 13.5L11.817 13.025L11.6038 12.953L11.4111 13.072L11.6634 13.5ZM13.6192 11.5L13.2075 11.23L13.0814 11.432L13.1557 11.658L13.6192 11.5ZM14.5971 14.49L14.4436 14.966C14.5298 14.9952 14.6222 14.9992 14.7106 14.9777C14.7989 14.9561 14.8796 14.9098 14.9437 14.844C15.0078 14.7782 15.0526 14.6954 15.0733 14.605C15.0939 14.5146 15.0895 14.42 15.0606 14.332L14.5971 14.49ZM11.4111 13.072C10.4763 13.647 8.98108 13.991 7.75188 13.991V14.991C9.10625 14.991 10.7892 14.621 11.9157 13.928L11.4111 13.072ZM7.75188 13.99C4.24126 13.99 1.39561 11.082 1.39561 7.494H0.417725C0.418762 9.48243 1.19192 11.3891 2.56723 12.7947C3.94254 14.2004 5.80742 14.99 7.75188 14.99V13.99ZM1.39561 7.494C1.39691 5.77096 2.06716 4.11994 3.25905 2.90204C4.45094 1.68413 6.06694 0.999999 7.75188 1V0C5.80759 -4.41835e-07 3.94286 0.789489 2.56758 2.19493C1.1923 3.60037 0.419021 5.50574 0.417725 7.494H1.39561ZM7.75188 1C11.2625 1 14.1081 3.908 14.1081 7.495H15.086C15.0847 5.50674 14.3115 3.60037 12.9362 2.19493C11.5609 0.789489 9.69617 -4.41835e-07 7.75188 0V1ZM14.1081 7.495C14.1081 8.826 13.8187 10.253 13.2075 11.23L14.0309 11.77C14.779 10.575 15.086 8.937 15.086 7.495H14.1081ZM11.5099 13.975L14.4436 14.966L14.7506 14.016L11.817 13.026L11.5099 13.975ZM15.0606 14.332L14.0827 11.342L13.1557 11.658L14.1336 14.649L15.0606 14.332Z" fill="black" fill-opacity="0.5"/>
</svg>
