<svg width="15" height="12" viewBox="0 0 15 12" fill="none" xmlns="http://www.w3.org/2000/svg">
<path d="M13.085 2.9445C13.0862 2.66546 12.9841 2.39239 12.7916 2.15973C12.599 1.92707 12.3246 1.74525 12.003 1.6372C11.6814 1.52916 11.3271 1.49974 10.9846 1.55265C10.6421 1.60556 10.3269 1.73843 10.0787 1.9345L8.69749 3.0445L8.22874 2.6695C8.18336 2.63391 8.12961 2.60587 8.07061 2.58699C8.01161 2.56811 7.94853 2.55877 7.88499 2.5595C7.75703 2.55962 7.63401 2.59899 7.54124 2.6695C7.45115 2.74289 7.40068 2.84164 7.40068 2.9445C7.40068 3.04735 7.45115 3.1461 7.54124 3.2195L8.00999 3.5945L2.53499 7.9745C2.18092 8.25804 1.97529 8.6389 1.95999 9.0395L1.91624 9.7995C1.91052 9.97386 1.99158 10.1429 2.14159 10.2695C2.2916 10.396 2.49829 10.4698 2.71624 10.4745H2.75374L3.70374 10.4395C4.20465 10.4234 4.67977 10.2575 5.03499 9.97449L10.51 5.5945L10.9787 5.9695C11.0716 6.03983 11.1946 6.07902 11.3225 6.07902C11.4504 6.07902 11.5734 6.03983 11.6662 5.9695C11.7563 5.8961 11.8068 5.79735 11.8068 5.6945C11.8068 5.59164 11.7563 5.49289 11.6662 5.4195L11.1975 5.0445L12.56 3.9545C12.7263 3.82211 12.8584 3.66473 12.9484 3.4914C13.0385 3.31807 13.0849 3.13221 13.085 2.9445ZM7.73499 7.1095H4.49999L8.45624 3.9495L10.075 5.2445L7.73499 7.1095ZM12.125 3.6L10.7625 4.695L9.14124 3.4L10.5225 2.29C10.7357 2.12181 11.0231 2.02752 11.3225 2.02752C11.6219 2.02752 11.9093 2.12181 12.1225 2.29C12.3385 2.46419 12.4597 2.69962 12.4597 2.945C12.4597 3.19037 12.3385 3.4258 12.1225 3.6H12.125Z" fill="black"/>
</svg>
