<svg width="35" height="32" viewBox="0 0 35 32" fill="none" xmlns="http://www.w3.org/2000/svg">
<rect width="35" height="32" rx="5" fill="#B04949"/>
<path d="M26.0002 25.0002L21.6572 20.6572M21.6572 20.6572C22.4001 19.9143 22.9894 19.0324 23.3914 18.0618C23.7935 17.0911 24.0004 16.0508 24.0004 15.0002C24.0004 13.9496 23.7935 12.9093 23.3914 11.9387C22.9894 10.968 22.4001 10.0861 21.6572 9.34321C20.9143 8.60032 20.0324 8.01103 19.0618 7.60898C18.0911 7.20693 17.0508 7 16.0002 7C14.9496 7 13.9093 7.20693 12.9387 7.60898C11.968 8.01103 11.0861 8.60032 10.3432 9.34321C8.84288 10.8435 8 12.8784 8 15.0002C8 17.122 8.84288 19.1569 10.3432 20.6572C11.8435 22.1575 13.8784 23.0004 16.0002 23.0004C18.122 23.0004 20.1569 22.1575 21.6572 20.6572ZM16.0002 12.0002V18.0002M13.0002 15.0002H19.0002" stroke="white" stroke-width="1.5" stroke-linecap="round" stroke-linejoin="round"/>
</svg>
