<svg width="35" height="32" viewBox="0 0 35 32" fill="none" xmlns="http://www.w3.org/2000/svg">
<rect width="35" height="32" rx="5" fill="#B04949"/>
<path d="M14.9 22C13.2833 22 11.8957 21.475 10.737 20.425C9.57833 19.375 8.99933 18.0667 9 16.5C9.00067 14.9333 9.58 13.625 10.738 12.575C11.896 11.525 13.2833 11 14.9 11H21.2L18.6 8.4L20 7L25 12L20 17L18.6 15.6L21.2 13H14.9C13.85 13 12.9373 13.3333 12.162 14C11.3867 14.6667 10.9993 15.5 11 16.5C11.0007 17.5 11.3883 18.3333 12.163 19C12.9377 19.6667 13.85 20 14.9 20H22V22H14.9Z" fill="white"/>
</svg>
