<svg width="52" height="47" viewBox="0 0 52 47" fill="none" xmlns="http://www.w3.org/2000/svg">
<path d="M11.8589 45.9217L11.9253 45.9404H11.9943C22.8333 45.9404 32.575 43.5072 39.6248 39.5021C46.6631 35.5035 51.1054 29.8785 51.1054 23.4828C51.1054 17.0843 46.5614 11.3899 39.4291 7.32331C32.2948 3.25553 22.4768 0.752709 11.6576 0.744116C9.59229 0.282534 7.82112 0.482295 6.33832 1.28752C4.84951 2.096 3.71138 3.4823 2.85563 5.27471C1.15247 8.84212 0.5 14.162 0.5 20.3169C0.499999 25.7623 0.594463 31.3742 2.0444 36.0025C3.50624 40.6687 6.36007 44.3741 11.8589 45.9217Z" fill="#FFF500" stroke="black"/>
<path d="M41.1817 23.355C41.1817 30.5255 30.5524 36.1742 17.1389 36.1742C10.5373 34.4322 10.2928 27.8793 10.2928 21.5067C10.2928 14.3361 11.9229 9.30581 16.8944 10.3716C30.3079 10.3716 41.1817 16.1844 41.1817 23.355Z" fill="#FA5A00"/>
<g filter="url(#filter0_d_2_6)">
<path d="M32.2815 23.2929C32.2815 27.5611 26.3363 30.9234 18.8339 30.9234C15.1415 29.8865 15.0047 25.9859 15.0047 22.1927C15.0047 17.9245 15.9164 14.9303 18.6971 15.5647C26.1996 15.5647 32.2815 19.0247 32.2815 23.2929Z" fill="#FA2D00"/>
</g>
<defs>
<filter id="filter0_d_2_6" x="11.0047" y="15.4799" width="25.2768" height="23.4436" filterUnits="userSpaceOnUse" color-interpolation-filters="sRGB">
<feFlood flood-opacity="0" result="BackgroundImageFix"/>
<feColorMatrix in="SourceAlpha" type="matrix" values="0 0 0 0 0 0 0 0 0 0 0 0 0 0 0 0 0 0 127 0" result="hardAlpha"/>
<feOffset dy="4"/>
<feGaussianBlur stdDeviation="2"/>
<feComposite in2="hardAlpha" operator="out"/>
<feColorMatrix type="matrix" values="0 0 0 0 0 0 0 0 0 0 0 0 0 0 0 0 0 0 0.25 0"/>
<feBlend mode="normal" in2="BackgroundImageFix" result="effect1_dropShadow_2_6"/>
<feBlend mode="normal" in="SourceGraphic" in2="effect1_dropShadow_2_6" result="shape"/>
</filter>
</defs>
</svg>
