<svg width="12" height="10" viewBox="0 0 12 10" fill="none" xmlns="http://www.w3.org/2000/svg">
<g clip-path="url(#clip0_3_186)">
<path fill-rule="evenodd" clip-rule="evenodd" d="M6.53001 6.69167C6.38939 6.80871 6.19876 6.87445 6.00001 6.87445C5.80126 6.87445 5.61064 6.80871 5.47001 6.69167L2.64101 4.335C2.50038 4.21775 2.4214 4.05875 2.42145 3.89298C2.42149 3.7272 2.50056 3.56823 2.64126 3.45104C2.78196 3.33385 2.97276 3.26803 3.17169 3.26807C3.37062 3.26811 3.56138 3.334 3.70201 3.45125L6.00001 5.36625L8.29801 3.45125C8.4394 3.33734 8.62882 3.27427 8.82546 3.27562C9.02211 3.27697 9.21026 3.34262 9.34938 3.45845C9.48851 3.57427 9.56747 3.731 9.56927 3.89487C9.57107 4.05875 9.49556 4.21665 9.35901 4.33458L6.53051 6.69208L6.53001 6.69167Z" fill="white"/>
</g>
<defs>
<clipPath id="clip0_3_186">
<rect width="12" height="10" fill="white"/>
</clipPath>
</defs>
</svg>
